<?xml version="1.0" encoding="iso-8859-1"?>
<!-- Generator: Adobe Illustrator 19.0.0, SVG Export Plug-In . SVG Version: 6.00 Build 0)  -->
<svg version="1.1" id="Layer_1" xmlns="http://www.w3.org/2000/svg" xmlns:xlink="http://www.w3.org/1999/xlink" x="0px" y="0px"
	 viewBox="0 0 512 512" style="enable-background:new 0 0 512 512;" xml:space="preserve">
<g>
	<circle style="fill:#000000" cx="256" cy="115.624" r="27.256"/>
	<path style="fill:#000000;" d="M286.424,153.776h-60.856c-21.456,0-38.92,17.464-38.92,38.92v76.32
		c0,7.816,6.336,14.152,14.152,14.152s14.152-6.336,14.152-14.152V200.56h8.496v64.536c0,0.032-0.008,0.056-0.008,0.088v144.288
		c0,7.816,6.336,14.152,14.152,14.152c7.816,0,14.152-6.336,14.152-14.152v-116.08h8.488v116.08c0,7.816,6.336,14.152,14.152,14.152
		s14.152-6.336,14.152-14.152v-116.08v-28.208V200.56h8.496v68.448c0,7.816,6.336,14.152,14.152,14.152s14.152-6.336,14.152-14.152
		v-76.32C325.344,171.24,307.88,153.776,286.424,153.776z"/>
</g>
<g>
</g>
<g>
</g>
<g>
</g>
<g>
</g>
<g>
</g>
<g>
</g>
<g>
</g>
<g>
</g>
<g>
</g>
<g>
</g>
<g>
</g>
<g>
</g>
<g>
</g>
<g>
</g>
<g>
</g>
</svg>
